<svg width="21" height="20" viewBox="0 0 21 20" fill="none" xmlns="http://www.w3.org/2000/svg">
<path fill-rule="evenodd" clip-rule="evenodd" d="M6.44231 17.0635C6.1611 16.7822 6.00313 16.4008 6.00313 16.003C6.00313 15.6053 6.1611 15.2238 6.44231 14.9425L11.3818 10.003L6.44231 5.06351C6.29904 4.92514 6.18477 4.75962 6.10616 4.57661C6.02754 4.39361 5.98616 4.19678 5.98443 3.99761C5.9827 3.79844 6.02065 3.60092 6.09607 3.41657C6.1715 3.23223 6.28288 3.06475 6.42371 2.92391C6.56455 2.78308 6.73203 2.67169 6.91638 2.59627C7.10072 2.52085 7.29824 2.4829 7.49741 2.48463C7.69658 2.48636 7.89341 2.52774 8.07641 2.60635C8.25942 2.68497 8.42494 2.79924 8.56331 2.94251L14.5633 8.94251C14.8445 9.2238 15.0025 9.60526 15.0025 10.003C15.0025 10.4008 14.8445 10.7822 14.5633 11.0635L8.56331 17.0635C8.28202 17.3447 7.90055 17.5027 7.50281 17.5027C7.10506 17.5027 6.7236 17.3447 6.44231 17.0635Z" fill="#626E79"/>
</svg>
