<svg width="20" height="20" viewBox="0 0 20 20" fill="none" xmlns="http://www.w3.org/2000/svg">
<path fill-rule="evenodd" clip-rule="evenodd" d="M2.93723 5.94231C3.21852 5.6611 3.59998 5.50313 3.99773 5.50313C4.39547 5.50313 4.77693 5.6611 5.05823 5.94231L9.99773 10.8818L14.9372 5.94231C15.0756 5.79904 15.2411 5.68477 15.4241 5.60616C15.6071 5.52754 15.804 5.48616 16.0031 5.48443C16.2023 5.4827 16.3998 5.52065 16.5842 5.59607C16.7685 5.6715 16.936 5.78288 17.0768 5.92371C17.2177 6.06455 17.329 6.23203 17.4045 6.41638C17.4799 6.60072 17.5178 6.79824 17.5161 6.99741C17.5144 7.19658 17.473 7.39341 17.3944 7.57641C17.3158 7.75942 17.2015 7.92494 17.0582 8.06331L11.0582 14.0633C10.7769 14.3445 10.3955 14.5025 9.99773 14.5025C9.59998 14.5025 9.21852 14.3445 8.93723 14.0633L2.93723 8.06331C2.65602 7.78202 2.49805 7.40055 2.49805 7.00281C2.49805 6.60506 2.65602 6.2236 2.93723 5.94231Z" fill="#626E79"/>
</svg>
