<svg width="21" height="20" viewBox="0 0 21 20" fill="none" xmlns="http://www.w3.org/2000/svg">
<path fill-rule="evenodd" clip-rule="evenodd" d="M14.5577 17.0635C14.8389 16.7822 14.9969 16.4008 14.9969 16.003C14.9969 15.6053 14.8389 15.2238 14.5577 14.9425L9.61819 10.003L14.5577 5.06351C14.701 4.92514 14.8152 4.75962 14.8938 4.57661C14.9725 4.39361 15.0138 4.19678 15.0156 3.99761C15.0173 3.79844 14.9793 3.60092 14.9039 3.41657C14.8285 3.23223 14.7171 3.06475 14.5763 2.92391C14.4354 2.78308 14.268 2.67169 14.0836 2.59627C13.8993 2.52085 13.7018 2.4829 13.5026 2.48463C13.3034 2.48636 13.1066 2.52774 12.9236 2.60635C12.7406 2.68497 12.5751 2.79924 12.4367 2.94251L6.43669 8.94251C6.15549 9.2238 5.99751 9.60526 5.99751 10.003C5.99751 10.4008 6.15549 10.7822 6.43669 11.0635L12.4367 17.0635C12.718 17.3447 13.0994 17.5027 13.4972 17.5027C13.8949 17.5027 14.2764 17.3447 14.5577 17.0635Z" fill="#626E79"/>
</svg>
