<svg xmlns="http://www.w3.org/2000/svg" width="199.209" height="44.6" viewBox="0 0 199.209 44.6">
  <path id="Union_1" data-name="Union 1" d="M-1813.57,38.924q6.532,0,6.532-3.067a17.912,17.912,0,0,0-1.808-6.22l-7.572-17.579h5.854l6.6,15.654,5.945-15.654h5.854l-10.6,26.294a7.5,7.5,0,0,1-3.876,3.755,15.256,15.256,0,0,1-6.927,1.492ZM-1990,33l2.169-4.928a12.46,12.46,0,0,0,6.848,2.284q5.176,0,5.176-3.385a4.618,4.618,0,0,0-1.22-3.025,15.691,15.691,0,0,0-5.029-3.226,24.435,24.435,0,0,1-5.131-2.94,7.867,7.867,0,0,1-2.034-2.74,8.472,8.472,0,0,1-.712-3.511,7.474,7.474,0,0,1,2.814-5.965A10.83,10.83,0,0,1-1979.9,3.2q5.741,0,8.431,2.01l-1.786,4.738a11.55,11.55,0,0,0-6.532-2.073,4.558,4.558,0,0,0-3.153,1,3.348,3.348,0,0,0-1.119,2.612q0,2.666,6.306,5.542a20.827,20.827,0,0,1,4.792,2.8,8.642,8.642,0,0,1,2.237,2.982,9.128,9.128,0,0,1,.769,3.8,7.486,7.486,0,0,1-3.176,6.2,13.639,13.639,0,0,1-8.51,2.433A15.912,15.912,0,0,1-1990,33Zm163.841-2.856V3.619l5.65-1.269V27.819q0,4.189,2.667,4.992a4.711,4.711,0,0,1-4.475,2.328Q-1826.16,35.138-1826.159,30.146Zm-43.961,3.077a7.3,7.3,0,0,1-1.943-5.446V16.312h-2.8V12.059h2.8V7.448l5.65-1.946v6.557h6.645v4.253h-6.645v9.921a5.547,5.547,0,0,0,.814,3.437,3.481,3.481,0,0,0,2.848,1,7.365,7.365,0,0,0,3.8-1.037V34.5a19.181,19.181,0,0,1-5.606.635A7.59,7.59,0,0,1-1870.12,33.223Zm-27.517-1.311a11.941,11.941,0,0,1-3.063-8.577,11.533,11.533,0,0,1,3.2-8.44,11.3,11.3,0,0,1,8.442-3.258q5.515,0,8.566,3.13t3.051,8.568a11.819,11.819,0,0,1-3.107,8.608,11.321,11.321,0,0,1-8.51,3.2Q-1894.575,35.138-1897.637,31.912Zm4.373-14.014a8.483,8.483,0,0,0-1.559,5.437q0,7.488,5.763,7.488a5.075,5.075,0,0,0,4.193-1.946,8.717,8.717,0,0,0,1.548-5.541q0-7.382-5.74-7.383A5.107,5.107,0,0,0-1893.264,17.9Zm-30.569,14.014a11.941,11.941,0,0,1-3.063-8.577,11.535,11.535,0,0,1,3.2-8.44,11.3,11.3,0,0,1,8.442-3.258q5.515,0,8.566,3.13t3.051,8.568a11.817,11.817,0,0,1-3.107,8.608,11.32,11.32,0,0,1-8.51,3.2Q-1920.771,35.138-1923.833,31.912Zm4.374-14.014a8.479,8.479,0,0,0-1.56,5.437q0,7.488,5.763,7.488a5.074,5.074,0,0,0,4.193-1.946,8.715,8.715,0,0,0,1.548-5.541q0-7.382-5.741-7.383A5.1,5.1,0,0,0-1919.459,17.9Zm80.552,16.817V20.754a4.322,4.322,0,0,0-1.4-3.364,5.246,5.246,0,0,0-3.662-1.269,6.315,6.315,0,0,0-2.825.709,5.136,5.136,0,0,0-2.034,1.618V34.714h-5.74V3.619l5.74-1.269V13.5a9.032,9.032,0,0,1,6.034-1.862,9.9,9.9,0,0,1,7.052,2.358,8.83,8.83,0,0,1,2.509,6.76v13.96Zm-98.16,0V20.521q0-4.464-4.272-4.463a4.715,4.715,0,0,0-2.44.7,4.2,4.2,0,0,0-1.65,1.608V34.714h-5.65V19.7a3.375,3.375,0,0,0-1.108-2.655,4.54,4.54,0,0,0-3.118-.983,4.621,4.621,0,0,0-2.317.74,5.266,5.266,0,0,0-1.819,1.629V34.714h-5.65V12.059h3.887l1.152,1.989a8.118,8.118,0,0,1,6.081-2.411q4.814,0,7.255,2.454a7.354,7.354,0,0,1,2.96-1.788,11.414,11.414,0,0,1,3.8-.666,8.7,8.7,0,0,1,6.3,2.168,7.886,7.886,0,0,1,2.248,5.955V34.714Zm49.224-29.991c0-2.609,1.339-4.724,2.991-4.724s2.991,2.115,2.991,4.724-1.339,4.724-2.991,4.724S-1887.843,7.333-1887.843,4.724Zm-8.6,0c0-2.609,1.339-4.724,2.991-4.724s2.992,2.115,2.992,4.724-1.34,4.724-2.992,4.724S-1896.44,7.333-1896.44,4.724Z" transform="translate(1990.635 0.5)" fill="#161615" stroke="rgba(0,0,0,0)" stroke-miterlimit="10" stroke-width="1"/>
</svg>
