<svg xmlns="http://www.w3.org/2000/svg" xmlns:xlink="http://www.w3.org/1999/xlink" width="816" zoomAndPan="magnify" viewBox="0 0 612 155.249994" height="206" preserveAspectRatio="xMidYMid meet" version="1.0"><defs><clipPath id="ed166e724e"><path d="M 49.28125 40.4375 L 105.226562 40.4375 L 105.226562 117.359375 L 49.28125 117.359375 Z M 49.28125 40.4375 " clip-rule="nonzero"/></clipPath><clipPath id="6034d0c058"><path d="M 88.066406 55.953125 C 88.234375 54.925781 87.765625 54.410156 86.671875 54.410156 L 70.929688 54.410156 C 69.824219 54.410156 69.195312 54.925781 69.027344 55.953125 L 66.867188 65.425781 C 66.699219 66.371094 67.117188 66.847656 68.132812 66.847656 L 84.382812 66.847656 C 85.398438 66.847656 86.035156 66.371094 86.285156 65.425781 Z M 105.074219 46.714844 L 94.40625 102.855469 C 93.898438 105.542969 92.753906 107.96875 90.980469 110.140625 C 89.210938 112.308594 87.03125 114.03125 84.441406 115.292969 C 81.855469 116.558594 79.089844 117.183594 76.132812 117.183594 L 68.132812 117.183594 C 66.53125 117.183594 65.144531 116.679688 64.011719 115.644531 C 62.878906 114.609375 62.300781 113.355469 62.300781 111.851562 L 62.300781 108.546875 C 62.300781 107.042969 62.867188 105.761719 64.011719 104.695312 C 65.15625 103.632812 66.53125 103.09375 68.132812 103.09375 L 76.125 103.09375 C 76.878906 103.09375 77.625 102.824219 78.34375 102.265625 C 79.058594 101.710938 79.46875 101.121094 79.546875 100.496094 L 82.96875 82.492188 C 83.140625 81.46875 82.671875 80.949219 81.578125 80.949219 L 55.066406 80.949219 C 53.113281 80.949219 51.640625 80.285156 50.625 78.941406 C 49.523438 77.746094 49.105469 76.253906 49.351562 74.433594 L 56.078125 44.695312 C 56.417969 43.433594 57.113281 42.40625 58.179688 41.609375 C 59.246094 40.816406 60.4375 40.4375 61.792969 40.4375 L 99.359375 40.4375 C 101.222656 40.4375 102.703125 41.074219 103.800781 42.328125 C 105.0625 43.589844 105.492188 45.042969 105.0625 46.707031 " clip-rule="nonzero"/></clipPath><clipPath id="6e46bf6949"><path d="M 141.238281 37 L 197.589844 37 L 197.589844 117.410156 L 141.238281 117.410156 Z M 141.238281 37 " clip-rule="nonzero"/></clipPath><clipPath id="eee03b4334"><path d="M 197.585938 46.597656 C 197.585938 48.339844 196.832031 49.792969 195.308594 50.976562 L 178.300781 63.300781 C 177.363281 63.9375 176.90625 64.761719 176.90625 65.785156 L 176.90625 111.746094 C 176.90625 113.246094 176.359375 114.53125 175.253906 115.597656 C 174.148438 116.660156 172.796875 117.199219 171.195312 117.199219 L 167.632812 117.199219 C 166.03125 117.199219 164.667969 116.660156 163.570312 115.597656 C 162.476562 114.53125 161.917969 113.246094 161.917969 111.746094 L 161.917969 76.675781 C 161.917969 76.367188 161.75 76.136719 161.410156 76.027344 L 160.773438 75.929688 L 150.503906 83.3125 C 149.578125 84.097656 148.394531 84.496094 146.953125 84.496094 C 146.273438 84.496094 145.429688 84.296875 144.414062 83.910156 C 142.292969 82.875 141.238281 81.261719 141.238281 79.050781 L 141.238281 74.902344 C 141.238281 73.160156 141.957031 71.746094 143.398438 70.632812 L 188.191406 38.300781 C 190.132812 36.875 192.171875 36.675781 194.28125 37.703125 C 196.480469 38.570312 197.585938 40.191406 197.585938 42.558594 Z M 197.585938 46.597656 " clip-rule="nonzero"/></clipPath><clipPath id="95cd870cc0"><path d="M 233.375 37.117188 L 289.726562 37.117188 L 289.726562 117.242188 L 233.375 117.242188 Z M 233.375 37.117188 " clip-rule="nonzero"/></clipPath><clipPath id="6c9cff68e4"><path d="M 289.722656 111.738281 C 289.722656 113.242188 289.175781 114.523438 288.070312 115.589844 C 286.964844 116.652344 285.574219 117.191406 283.882812 117.191406 L 250.761719 117.191406 C 247.546875 117.191406 244.621094 116.464844 242.003906 115.003906 C 239.386719 113.539062 237.285156 111.589844 235.714844 109.140625 C 234.140625 106.691406 233.375 103.964844 233.375 100.960938 L 233.375 90.660156 C 233.375 87.105469 234.011719 83.671875 235.285156 80.359375 L 250.761719 40.671875 C 251.609375 38.304688 253.390625 37.117188 256.097656 37.117188 L 259.90625 37.117188 C 262.015625 37.117188 263.589844 37.90625 264.605469 39.488281 C 265.789062 40.988281 266.046875 42.640625 265.371094 44.464844 L 249.367188 85.207031 C 248.691406 86.949219 248.351562 88.757812 248.351562 90.648438 L 248.351562 100.960938 C 248.351562 101.515625 248.613281 102.003906 249.121094 102.441406 L 250.175781 103.089844 L 272.972656 103.089844 C 274.070312 103.089844 274.625 102.582031 274.625 101.546875 L 274.625 86.511719 C 274.625 85.085938 275.222656 83.832031 276.398438 82.71875 C 277.503906 81.691406 278.855469 81.175781 280.457031 81.175781 L 283.882812 81.175781 C 285.574219 81.175781 286.964844 81.691406 288.070312 82.71875 C 289.175781 83.742188 289.722656 85.007812 289.722656 86.511719 Z M 289.722656 111.738281 " clip-rule="nonzero"/></clipPath><clipPath id="bdfffc6775"><path d="M 325.515625 40.4375 L 381.867188 40.4375 L 381.867188 117.257812 L 325.515625 117.257812 Z M 325.515625 40.4375 " clip-rule="nonzero"/></clipPath><clipPath id="6e13011a69"><path d="M 381.863281 62.816406 C 381.863281 68.5 379.871094 73.4375 375.902344 77.625 L 361.3125 93.03125 C 360.636719 93.816406 360.59375 94.613281 361.183594 95.398438 L 370.695312 108.785156 C 372.050781 110.527344 372.179688 112.378906 371.074219 114.347656 C 369.96875 116.238281 368.238281 117.195312 365.871094 117.195312 L 361.691406 117.195312 C 359.738281 117.195312 358.136719 116.410156 356.863281 114.824219 L 329.835938 76.917969 C 328.558594 75.097656 328.480469 73.246094 329.585938 71.347656 C 330.511719 69.457031 332.203125 68.5 334.660156 68.5 L 338.851562 68.5 C 340.792969 68.5 342.402344 69.296875 343.675781 70.867188 L 350.652344 80.820312 C 350.914062 81.140625 351.25 81.316406 351.667969 81.359375 L 352.425781 81.257812 L 359.910156 73.246094 C 361.171875 71.902344 362.167969 70.859375 362.894531 70.113281 L 364.605469 68.390625 C 366.039062 66.808594 366.765625 64.957031 366.765625 62.828125 L 366.765625 56.667969 C 366.765625 56.039062 366.558594 55.503906 366.128906 55.066406 L 365.152344 54.417969 L 331.226562 54.417969 C 329.617188 54.417969 328.261719 53.910156 327.167969 52.875 C 326.074219 51.839844 325.515625 50.585938 325.515625 49.082031 L 325.515625 45.761719 C 325.515625 44.265625 326.0625 43.003906 327.167969 41.976562 C 328.273438 40.953125 329.617188 40.4375 331.226562 40.4375 L 364.476562 40.4375 C 367.691406 40.4375 370.605469 41.164062 373.234375 42.625 C 375.863281 44.089844 377.953125 46.039062 379.515625 48.488281 C 381.078125 50.933594 381.863281 53.660156 381.863281 56.65625 Z M 381.863281 62.816406 " clip-rule="nonzero"/></clipPath><clipPath id="1858a99233"><path d="M 421.003906 56.425781 L 474.453125 56.425781 L 474.453125 117.332031 L 421.003906 117.332031 Z M 421.003906 56.425781 " clip-rule="nonzero"/></clipPath><clipPath id="d50fd6155c"><path d="M 474.132812 67.800781 L 467.027344 105.347656 C 466.429688 108.742188 464.679688 111.570312 461.765625 113.820312 C 458.847656 116.066406 455.523438 117.191406 451.800781 117.191406 L 445.453125 117.191406 C 443.839844 117.191406 442.46875 116.65625 441.324219 115.589844 C 440.179688 114.523438 439.609375 113.242188 439.609375 111.738281 L 439.609375 108.542969 C 439.609375 107.042969 440.179688 105.757812 441.324219 104.691406 C 442.46875 103.628906 443.839844 103.089844 445.453125 103.089844 L 451.542969 103.089844 C 451.792969 103.089844 451.960938 103.050781 452.050781 102.972656 L 452.179688 102.832031 L 452.21875 102.691406 L 459.285156 65.898438 C 459.542969 64.554688 460.191406 63.472656 461.257812 62.644531 C 462.320312 61.820312 463.554688 61.402344 465 61.402344 L 468.429688 61.402344 C 470.292969 61.402344 471.773438 62.039062 472.871094 63.292969 C 474.054688 64.714844 474.472656 66.21875 474.132812 67.789062 M 453.574219 85.445312 C 453.574219 86.949219 453.007812 88.210938 451.863281 89.238281 C 450.71875 90.261719 449.34375 90.78125 447.742188 90.78125 L 444.179688 90.78125 C 442.566406 90.78125 441.214844 90.261719 440.117188 89.238281 C 439.023438 88.210938 438.464844 86.949219 438.464844 85.445312 L 438.464844 61.761719 C 438.464844 60.257812 439.011719 58.992188 440.117188 57.96875 C 441.222656 56.941406 442.578125 56.425781 444.179688 56.425781 L 447.730469 56.425781 C 449.332031 56.425781 450.71875 56.941406 451.851562 57.96875 C 452.984375 58.992188 453.5625 60.257812 453.5625 61.761719 Z M 436.4375 85.445312 C 436.4375 86.949219 435.867188 88.210938 434.722656 89.238281 C 433.578125 90.261719 432.207031 90.78125 430.59375 90.78125 L 427.050781 90.78125 C 425.4375 90.78125 424.066406 90.261719 422.921875 89.238281 C 421.777344 88.210938 421.210938 86.949219 421.210938 85.445312 L 421.210938 61.761719 C 421.210938 60.257812 421.785156 58.992188 422.921875 57.96875 C 424.054688 56.941406 425.4375 56.425781 427.050781 56.425781 L 430.59375 56.425781 C 432.207031 56.425781 433.578125 56.941406 434.722656 57.96875 C 435.867188 58.992188 436.4375 60.257812 436.4375 61.761719 Z M 436.4375 85.445312 " clip-rule="nonzero"/></clipPath><clipPath id="e653b9a0dc"><path d="M 506.144531 40.183594 L 562.71875 40.183594 L 562.71875 117.226562 L 506.144531 117.226562 Z M 506.144531 40.183594 " clip-rule="nonzero"/></clipPath><clipPath id="97ac664984"><path d="M 562.714844 70.398438 C 562.714844 71.902344 562.167969 73.164062 561.0625 74.191406 C 559.957031 75.214844 558.5625 75.734375 556.871094 75.734375 L 545.328125 75.734375 C 544.222656 75.734375 543.675781 76.25 543.675781 77.277344 L 543.675781 85.445312 C 543.675781 91.605469 541.90625 97.167969 538.34375 102.144531 L 529.214844 114.816406 C 528.199219 116.398438 526.589844 117.183594 524.390625 117.183594 L 520.199219 117.183594 C 517.921875 117.183594 516.21875 116.238281 515.125 114.335938 C 514.03125 112.4375 514.109375 110.585938 515.371094 108.773438 L 525.78125 94.332031 C 527.722656 91.648438 528.699219 88.691406 528.699219 85.445312 L 528.699219 77.277344 C 528.699219 76.25 528.152344 75.734375 527.046875 75.734375 L 512.078125 75.734375 C 510.464844 75.734375 509.113281 75.226562 508.019531 74.191406 C 506.925781 73.15625 506.367188 71.902344 506.367188 70.398438 L 506.367188 67.085938 C 506.367188 65.582031 506.914062 64.320312 508.019531 63.292969 C 509.125 62.269531 510.476562 61.75 512.078125 61.75 L 527.054688 61.75 C 528.152344 61.75 528.707031 61.234375 528.707031 60.207031 L 528.707031 58.4375 C 528.707031 58.039062 528.539062 57.691406 528.199219 57.371094 L 527.484375 56.945312 L 512.585938 58.199219 L 512.078125 58.199219 C 510.636719 58.199219 509.320312 57.730469 508.136719 56.773438 C 506.953125 55.820312 506.367188 54.496094 506.367188 52.753906 L 506.367188 49.558594 C 506.367188 48.136719 506.875 46.914062 507.890625 45.886719 C 508.902344 44.863281 510.128906 44.265625 511.570312 44.105469 L 556.375 40.433594 C 558.144531 40.273438 559.628906 40.710938 560.8125 41.738281 C 562.085938 42.761719 562.714844 44.105469 562.714844 45.757812 L 562.714844 49.082031 C 562.714844 50.425781 562.207031 51.609375 561.191406 52.636719 C 560.175781 53.660156 558.914062 54.257812 557.378906 54.417969 L 545.328125 55.480469 C 544.898438 55.480469 544.523438 55.660156 544.183594 56.007812 L 543.675781 56.746094 L 543.675781 60.21875 C 543.675781 61.242188 544.222656 61.761719 545.328125 61.761719 L 556.871094 61.761719 C 558.5625 61.761719 559.957031 62.269531 561.0625 63.304688 C 562.167969 64.339844 562.714844 65.59375 562.714844 67.09375 Z M 562.714844 70.398438 " clip-rule="nonzero"/></clipPath></defs><g clip-path="url(#ed166e724e)"><g clip-path="url(#6034d0c058)"><path fill="#0f63aa" d="M 49.28125 40.4375 L 105.226562 40.4375 L 105.226562 117.140625 L 49.28125 117.140625 Z M 49.28125 40.4375 " fill-opacity="1" fill-rule="nonzero"/></g></g><g clip-path="url(#6e46bf6949)"><g clip-path="url(#eee03b4334)"><path fill="#0f63aa" d="M 141.238281 37.066406 L 197.589844 37.066406 L 197.589844 117.1875 L 141.238281 117.1875 Z M 141.238281 37.066406 " fill-opacity="1" fill-rule="nonzero"/></g></g><g clip-path="url(#95cd870cc0)"><g clip-path="url(#6c9cff68e4)"><path fill="#0f63aa" d="M 233.375 37.117188 L 289.726562 37.117188 L 289.726562 117.242188 L 233.375 117.242188 Z M 233.375 37.117188 " fill-opacity="1" fill-rule="nonzero"/></g></g><g clip-path="url(#bdfffc6775)"><g clip-path="url(#6e13011a69)"><path fill="#0f63aa" d="M 325.515625 40.4375 L 381.867188 40.4375 L 381.867188 117.257812 L 325.515625 117.257812 Z M 325.515625 40.4375 " fill-opacity="1" fill-rule="nonzero"/></g></g><g clip-path="url(#1858a99233)"><g clip-path="url(#d50fd6155c)"><path fill="#0f63aa" d="M 421.210938 56.425781 L 474.246094 56.425781 L 474.246094 117.125 L 421.210938 117.125 Z M 421.210938 56.425781 " fill-opacity="1" fill-rule="nonzero"/></g></g><g clip-path="url(#e653b9a0dc)"><g clip-path="url(#97ac664984)"><path fill="#0f63aa" d="M 506.367188 40.40625 L 562.71875 40.40625 L 562.71875 117.226562 L 506.367188 117.226562 Z M 506.367188 40.40625 " fill-opacity="1" fill-rule="nonzero"/></g></g></svg>