<svg version="1.2" baseProfile="tiny-ps" xmlns="http://www.w3.org/2000/svg" width="150" height="150" viewBox="125 100 150 300">
	<path id="&lt;Compound Path&gt;" class="shp0" d="M133.22 345.34L148.19 311.21C164.2 321.76 179.95 327.03 195.45 327.03C219.26 327.03 231.16 319.22 231.16 303.59C231.16 296.27 228.36 289.29 222.74 282.64C217.13 276 205.56 268.56 188.04 260.31C170.52 252.05 158.72 245.27 152.64 239.94C146.55 234.62 141.87 228.3 138.6 220.97C135.32 213.65 133.69 205.55 133.69 196.66C133.69 180.06 140.16 166.29 153.1 155.35C166.05 144.41 182.66 138.94 202.93 138.94C229.34 138.94 248.74 143.58 261.11 152.86L248.79 185.67C234.54 176.1 219.52 171.32 203.71 171.32C194.36 171.32 187.1 173.64 181.96 178.27C176.81 182.91 174.24 188.95 174.24 196.37C174.24 208.67 188.74 221.46 217.75 234.74C233.04 241.78 244.06 248.25 250.82 254.15C257.57 260.06 262.72 266.95 266.26 274.81C269.79 282.67 271.56 291.43 271.56 301.1C271.56 318.49 264.25 332.79 249.65 344.02C235.04 355.25 215.46 360.87 190.92 360.87C169.61 360.87 150.37 355.69 133.22 345.34Z" />
</svg>
